HIERARCHY
ROOT Hips
{
    OFFSET 13.847148895263672 94.44254684448242 -18.282005310058594
    CHANNELS 6 Xposition Yposition Zposition Zrotation Xrotation Yrotation
    JOINT RightUpLeg
    {
        OFFSET -13.847148895263672 0.0 0.0
        CHANNELS 3 Zrotation Xrotation Yrotation
        JOINT RightLeg
        {
            OFFSET 0.0 -48.7375373840332 0.0
            CHANNELS 3 Zrotation Xrotation Yrotation
            JOINT RightFoot
            {
                OFFSET 0.0 -45.70500946044922 0.0
                CHANNELS 3 Zrotation Xrotation Yrotation
                End Site
                {
                    OFFSET 0.0 0.0 18.282005310058594
                }
            }
        }
    }
    JOINT LeftUpLeg
    {
        OFFSET 13.847148895263672 0.0 0.0
        CHANNELS 3 Zrotation Xrotation Yrotation
        JOINT LeftLeg
        {
            OFFSET 0.0 -48.7375373840332 0.0
            CHANNELS 3 Zrotation Xrotation Yrotation
            JOINT LeftFoot
            {
                OFFSET 0.0 -45.70500946044922 0.0
                CHANNELS 3 Zrotation Xrotation Yrotation
                End Site
                {
                    OFFSET 0.0 0.0 18.282005310058594
                }
            }
        }
    }
    JOINT Spine
    {
        OFFSET 0.0 25.440725326538086 0.0
        CHANNELS 3 Zrotation Xrotation Yrotation
        JOINT Spine3
        {
            OFFSET 0.0 26.365293502807617 0.0
            CHANNELS 3 Zrotation Xrotation Yrotation
            JOINT Neck
            {
                OFFSET 0.0 10.940889358520508 0.0
                CHANNELS 3 Zrotation Xrotation Yrotation
                End Site
                {
                    OFFSET 0.0 4.37635612487793 0.0
                }
            }
            JOINT LeftArm
            {
                OFFSET 14.845487594604492 0.0 0.0
                CHANNELS 3 Zrotation Xrotation Yrotation
                JOINT LeftForeArm
                {
                    OFFSET 29.455917358398438 0.0 0.0
                    CHANNELS 3 Zrotation Xrotation Yrotation
                    JOINT LeftHand
                    {
                        OFFSET 21.72846221923828 0.0 0.0
                        CHANNELS 3 Zrotation Xrotation Yrotation
                        End Site
                        {
                            OFFSET 8.691386222839355 0.0 0.0
                        }
                    }
                }
            }
            JOINT RightArm
            {
                OFFSET -14.845487594604492 0.0 0.0
                CHANNELS 3 Zrotation Xrotation Yrotation
                JOINT RightForeArm
                {
                    OFFSET -29.455917358398438 0.0 0.0
                    CHANNELS 3 Zrotation Xrotation Yrotation
                    JOINT RightHand
                    {
                        OFFSET -21.72846221923828 0.0 0.0
                        CHANNELS 3 Zrotation Xrotation Yrotation
                        End Site
                        {
                            OFFSET -8.691386222839355 0.0 0.0
                        }
                    }
                }
            }
        }
    }
}
MOTION
Frames: 4
Frame Time: 0.03333333333333333
0.00022771701333113015 96.1129379272461 -0.0006749886088073254 13.11275328109909 -8.944196554438822 60.46100575546819 -0.4226719217416761 16.033959198981652 0.9833687586513331 -0.40244210384883694 10.999827586449175 0.732535629182847 7.951386703658792e-16 1.8621167194899106e-32 2.683593012484842e-15 6.223984145271748 20.330077461221595 -1.0753895223041772 -0.8544635992818478 5.776392327971635 -0.20704592879264988 -1.987846675914698e-16 -1.7890620083232284e-15 -1.2424041724466863e-15 -5.357081666615724 27.459247094341308 3.9380074264013554 -1.274179686045533e-06 -1.9384843718528438e-07 -2.3130955566169953 10.085700846046338 3.6304907717888084 175.1852432287217 134.5081681123749 -42.295470080877806 -160.90808352528404 -2.3974524004310733e-06 -1.284248229441329e-06 22.995372668309596 -8.892507864287158e-15 1.2424041724466887e-17 -2.73328917938271e-16 -114.70717948541198 -30.404254195777394 -179.64384806151014 3.226478622277866e-06 -5.946686094735975e-06 -24.3322843368671 6.3611093629270335e-15 3.531125038440127e-31 6.3611093629270335e-15
0.00044446345418691635 96.11317443847656 -0.000668182095978409 10.72280350794976 -8.483796133275256 60.973427731084094 0.7646638534408653 13.7717702055612 0.6745150469524567 0.19541191380906323 9.909352028216217 0.4429388926951964 -1.5902773407317588e-15 3.975693351829397e-16 -4.969616689786745e-17 7.346706729837197 17.30088134686667 -1.115686733670996 -0.7806680368375397 5.449371632600579 -0.2671237947224083 -1.1927080055488188e-15 1.5902773407317584e-15 5.5535466508366875e-15 -6.660465028589977 25.200303832213518 4.407246403022727 -5.329913593955724e-07 -3.2473525459643653e-07 -0.988359859079053 9.41343893403214 4.343004873417616 175.0166666136587 136.30637653286857 -42.89447606274112 -160.67008492025633 9.948963880032795e-07 -3.3126932239265496e-06 21.94685185405103 -7.168672075017381e-15 7.951386703658794e-16 4.974265496044808e-32 -114.38395440381832 -35.649888594731934 -175.123687896327 2.185308103043118e-06 -7.910830216862745e-07 -22.737680846584812 -6.3611093629270335e-15 3.531125038440127e-31 -6.3611093629270335e-15
0.0005061958217993379 96.1136245727539 -0.0006898724823258817 9.943962867394074 -7.192448638991084 62.30473277143039 -0.17379724541079689 12.50313091419258 0.6978782711847359 0.9590671590170157 8.300856154220925 0.3186946825914128 2.1379858631180455e-32 3.975693351829396e-16 -6.1623246953355635e-15 6.767659733126153 15.219761698614354 -0.9765036393605923 -0.5231857496032055 4.910344218459625 -0.26379922853576093 2.4848083448933725e-16 -2.4848083448933716e-17 3.4352475368150873e-15 -8.958731020140899 25.324265915992953 5.1995877764769745 1.441245453294709e-07 -1.254161330111635e-06 -3.0606033231190817 9.475213210660234 7.265363540050646 176.52667897995985 138.09697386878858 -42.35209431398381 -160.8547325486942 -1.7157476027774448e-06 -5.176662720362023e-06 21.94950315606592 -1.6648215910785596e-15 7.951386703658792e-16 1.987846675914698e-16 -112.03964448644014 -34.416720175178035 -170.3087197087156 5.582339265174396e-07 -5.144100084004893e-06 -22.722169804951907 -7.062250076880254e-31 -6.361109362927033e-15 -1.2722218725854065e-14
0.00048327952390536666 96.1137924194336 -0.0007207057788036764 7.850981641440897 -6.759085056723734 63.43573028429986 0.5385317637493366 10.444519919916438 0.5427648424944707 0.7083782114680653 8.298292318342595 0.32571009121247807 -7.951386703658792e-16 -4.1725207973755403e-32 6.013236194641961e-15 7.846368961178441 12.977615126291058 -0.969996075560904 -0.504276434705579 3.8894224152081422 -0.2523278599674231 -1.490885006936024e-16 -2.0003206947645523e-33 1.5374751634027746e-15 -9.661355815243766 24.30757516336421 5.512944615803304 -7.004582006045598e-08 -4.977297469540118e-07 -3.999706684911194 10.583630318478932 7.064981105491485 178.22045517203597 137.93275419508834 -40.010382258153264 -161.97239349441125 -2.4787945448065964e-06 -4.919084350714513e-06 22.338805658413325 2.1866313435061676e-15 7.58640144977371e-33 3.975693351829396e-16 -109.4744078345185 -38.74218387554037 -165.59558955348962 -1.6801450613238335e-06 2.738748760338267e-07 -22.239066180815303 -6.3611093629270335e-15 -3.1805546814635168e-15 6.3611093629270335e-15
